<?xml version="1.0" encoding="UTF-8" standalone="no"?>
<!DOCTYPE svg PUBLIC "-//W3C//DTD SVG 1.1//EN" "http://www.w3.org/Graphics/SVG/1.1/DTD/svg11.dtd">
<svg width="100%" height="100%" viewBox="0 0 1108 1557" version="1.1" xmlns="http://www.w3.org/2000/svg" xmlns:xlink="http://www.w3.org/1999/xlink" xml:space="preserve" xmlns:serif="http://www.serif.com/" style="fill-rule:evenodd;clip-rule:evenodd;stroke-linejoin:round;stroke-miterlimit:2;">
    <g transform="matrix(1,0,0,1,-14494.5,-17417.1)">
        <g transform="matrix(1.19661,0,0,1.19661,-2779.41,-3377.68)">
            <g transform="matrix(3.04056,0,0,3.04056,-32056.6,-37587.4)">
                <path d="M15328.8,18331.4L15291.7,18402.6C15291.7,18402.6 15330.2,18156.4 15341.7,18083.1C15342.1,18080.2 15344.4,18078 15347.3,18077.5C15350.1,18077.1 15353,18078.5 15354.3,18081.1L15386.4,18143C15361.5,18179.2 15338,18230.6 15329.3,18301.1C15328.1,18311.4 15327.9,18321.6 15328.8,18331.4Z" style="fill:rgb(239,239,239);"/>
            </g>
        </g>
        <g transform="matrix(1.19661,0,0,1.19661,-2779.41,-3377.68)">
            <g transform="matrix(2.83841,0,0,2.83841,-27899.2,-32223.2)">
                <path d="M14928,17818L14958.1,17760L14964.8,17781.2L14928,17818Z" style="fill:rgb(239,239,239);"/>
            </g>
        </g>
        <g transform="matrix(1.19661,0,0,1.19661,-2779.41,-3377.68)">
            <g transform="matrix(3.04056,0,0,3.04056,-32056.6,-37587.4)">
                <path d="M15348.1,18352.3L15364.7,18335.5C15364,18316.3 15364.8,18293.3 15367.6,18269.1C15362.4,18252.1 15360.7,18232.6 15362.4,18210.5C15359.2,18217.1 15356.4,18224.3 15353.2,18231.4C15340.3,18269.1 15334.5,18308.2 15340,18342.6C15342.3,18346.1 15344.9,18349.3 15348.1,18352.3ZM15370.1,18330L15389,18310.9C15385.7,18305.4 15382.7,18300.1 15379.9,18294.9C15376.8,18290.4 15374.3,18285.6 15372,18280.8L15371.9,18280.6C15370.3,18298.4 15369.7,18315.3 15370.1,18330ZM15395.3,18304.7L15419.7,18280.1C15402,18251.1 15389.7,18222 15386.2,18199C15379.6,18224.5 15377.3,18240.3 15373.6,18266.8L15373.6,18267.4C15376.2,18274 15379.6,18282 15384.2,18290.6C15387.4,18295.8 15391.1,18300.5 15395.3,18304.7ZM15424.1,18275.6L15496.8,18202.2C15467.6,18172.9 15443.4,18139.7 15444.6,18091.2C15443.4,18092.1 15442.3,18092.9 15441.4,18093.8C15435.1,18099.3 15428.8,18105.3 15422.7,18111.9C15409.8,18130.3 15399.5,18153.9 15391.4,18179.4C15388.3,18201.8 15401.9,18238.7 15424.1,18275.6ZM15371.3,18187.8L15370.7,18191.8C15366.7,18214.5 15366.4,18234.9 15369.6,18252.7C15372.7,18231.4 15377.1,18209.6 15383.1,18188.6C15383.9,18185.5 15384.8,18182 15386,18178.6L15386.2,18178.6C15390.8,18164.2 15396,18150.4 15402,18137.5C15390.6,18152.7 15380.5,18169.7 15371.3,18187.8ZM15500.9,18198.1L15503.1,18195.9C15479.3,18163.2 15465.8,18137 15465.8,18077.4C15461,18080 15455.8,18083.2 15450.3,18086.9C15447.6,18135.6 15471.5,18168.9 15500.9,18198.1Z" style="fill:rgb(107,0,255);fill-rule:nonzero;"/>
            </g>
        </g>
        <g transform="matrix(1.19661,0,0,1.19661,-2779.41,-3377.68)">
            <g transform="matrix(2.83841,0,0,2.83841,-27933.2,-32145.6)">
                <path d="M14927,17817C14927,17817 15149.2,17592.9 15199.5,17542.1C15201.4,17540.2 15204.2,17539.5 15206.8,17540.3C15209.4,17541.2 15211.3,17543.4 15211.7,17546.1C15219.6,17596.2 15246.3,17765 15252.9,17806.7C15253.8,17812.4 15251,17817.9 15246.1,17820.7C15217.3,17836.8 15122.2,17889.8 15096.1,17904.3C15092,17906.6 15087,17906.6 15082.9,17904.3C15052.4,17887.2 14927,17817 14927,17817Z" style="fill:rgb(239,239,239);"/>
            </g>
        </g>
    </g>
</svg>
