<?xml version="1.0" encoding="UTF-8" standalone="no"?>
<!-- Created with Inkscape (http://www.inkscape.org/) -->

<svg
   width="119.06913mm"
   height="24.152273mm"
   viewBox="0 0 119.06913 24.152273"
   version="1.1"
   id="svg1"
   xml:space="preserve"
   xmlns="http://www.w3.org/2000/svg"
   xmlns:svg="http://www.w3.org/2000/svg"><defs
     id="defs1" /><g
     id="layer1"
     transform="translate(-44.445179,-85.381133)"><g
       id="g12"><g
         style="clip-rule:evenodd;fill-rule:evenodd;stroke-linejoin:round;stroke-miterlimit:2"
         id="g10"
         transform="matrix(0.0155139,0,0,0.0155139,44.444435,85.382195)"><g
           transform="translate(-14494.5,-17417.1)"
           id="g9">
        <g
   transform="matrix(1.19661,0,0,1.19661,-2779.41,-3377.68)"
   id="g2">
            <g
   transform="matrix(3.04056,0,0,3.04056,-32056.6,-37587.4)"
   id="g1">
                <path
   d="m 15328.8,18331.4 -37.1,71.2 c 0,0 38.5,-246.2 50,-319.5 0.4,-2.9 2.7,-5.1 5.6,-5.6 2.8,-0.4 5.7,1 7,3.6 l 32.1,61.9 c -24.9,36.2 -48.4,87.6 -57.1,158.1 -1.2,10.3 -1.4,20.5 -0.5,30.3 z"
   style="fill:#2a2a2a"
   id="path1" />
            </g>
        </g>
        <g
   transform="matrix(1.19661,0,0,1.19661,-2779.41,-3377.68)"
   id="g4">
            <g
   transform="matrix(2.83841,0,0,2.83841,-27899.2,-32223.2)"
   id="g3">
                <path
   d="m 14928,17818 30.1,-58 6.7,21.2 z"
   style="fill:#2a2a2a"
   id="path2" />
            </g>
        </g>
        <g
   transform="matrix(1.19661,0,0,1.19661,-2779.41,-3377.68)"
   id="g6">
            <g
   transform="matrix(3.04056,0,0,3.04056,-32056.6,-37587.4)"
   id="g5">
                <path
   d="m 15348.1,18352.3 16.6,-16.8 c -0.7,-19.2 0.1,-42.2 2.9,-66.4 -5.2,-17 -6.9,-36.5 -5.2,-58.6 -3.2,6.6 -6,13.8 -9.2,20.9 -12.9,37.7 -18.7,76.8 -13.2,111.2 2.3,3.5 4.9,6.7 8.1,9.7 z m 22,-22.3 18.9,-19.1 c -3.3,-5.5 -6.3,-10.8 -9.1,-16 -3.1,-4.5 -5.6,-9.3 -7.9,-14.1 l -0.1,-0.2 c -1.6,17.8 -2.2,34.7 -1.8,49.4 z m 25.2,-25.3 24.4,-24.6 c -17.7,-29 -30,-58.1 -33.5,-81.1 -6.6,25.5 -8.9,41.3 -12.6,67.8 v 0.6 c 2.6,6.6 6,14.6 10.6,23.2 3.2,5.2 6.9,9.9 11.1,14.1 z m 28.8,-29.1 72.7,-73.4 c -29.2,-29.3 -53.4,-62.5 -52.2,-111 -1.2,0.9 -2.3,1.7 -3.2,2.6 -6.3,5.5 -12.6,11.5 -18.7,18.1 -12.9,18.4 -23.2,42 -31.3,67.5 -3.1,22.4 10.5,59.3 32.7,96.2 z m -52.8,-87.8 -0.6,4 c -4,22.7 -4.3,43.1 -1.1,60.9 3.1,-21.3 7.5,-43.1 13.5,-64.1 0.8,-3.1 1.7,-6.6 2.9,-10 h 0.2 c 4.6,-14.4 9.8,-28.2 15.8,-41.1 -11.4,15.2 -21.5,32.2 -30.7,50.3 z m 129.6,10.3 2.2,-2.2 c -23.8,-32.7 -37.3,-58.9 -37.3,-118.5 -4.8,2.6 -10,5.8 -15.5,9.5 -2.7,48.7 21.2,82 50.6,111.2 z"
   style="fill:#6b00ff;fill-rule:nonzero"
   id="path4" />
            </g>
        </g>
        <g
   transform="matrix(1.19661,0,0,1.19661,-2779.41,-3377.68)"
   id="g8">
            <g
   transform="matrix(2.83841,0,0,2.83841,-27933.2,-32145.6)"
   id="g7">
                <path
   d="m 14927,17817 c 0,0 222.2,-224.1 272.5,-274.9 1.9,-1.9 4.7,-2.6 7.3,-1.8 2.6,0.9 4.5,3.1 4.9,5.8 7.9,50.1 34.6,218.9 41.2,260.6 0.9,5.7 -1.9,11.2 -6.8,14 -28.8,16.1 -123.9,69.1 -150,83.6 -4.1,2.3 -9.1,2.3 -13.2,0 -30.5,-17.1 -155.9,-87.3 -155.9,-87.3 z"
   style="fill:#2a2a2a"
   id="path6" />
            </g>
        </g>
    </g></g><text
         xml:space="preserve"
         style="font-size:14.1111px;text-align:start;writing-mode:lr-tb;direction:ltr;text-anchor:start;fill:#6b00ff;fill-opacity:1;stroke-width:0.264583"
         x="64.651978"
         y="104.61903"
         id="text10"><tspan
           id="tspan10"
           style="font-style:normal;font-variant:normal;font-weight:600;font-stretch:normal;font-size:14.1111px;font-family:'Noto Sans Arabic';-inkscape-font-specification:'Noto Sans Arabic Semi-Bold';fill:#6b00ff;fill-opacity:1;stroke-width:0.264583"
           x="64.651978"
           y="104.61903">PPlusFireStore</tspan></text></g></g></svg>
